<svg xmlns="http://www.w3.org/2000/svg" xmlns:xlink="http://www.w3.org/1999/xlink" version="1.1" width="1000" height="1000" viewBox="0 0 1000 1000" xml:space="preserve">
    <g transform="matrix(2.4085 0 0 2.4085 499.9989 499.9989)" id="7963">
    <path style="stroke: none; stroke-width: 1; stroke-dasharray: none; stroke-linecap: butt; stroke-dashoffset: 0; stroke-linejoin: miter; stroke-miterlimit: 4; is-custom-font: none; font-file-url: none; fill: rgb(0,0,0); fill-rule: nonzero; opacity: 1;" vector-effect="non-scaling-stroke" transform=" translate(-128, -133.8455)" d="M 17.4579119 0 L 0 46.5559188 L 0 232.757287 L 63.9826001 232.757287 L 63.9826001 267.690956 L 98.9144853 267.690956 L 133.811571 232.757287 L 186.171922 232.757287 L 256 162.954193 L 256 0 L 17.4579119 0 Z M 40.7166868 23.2632364 L 232.73141 23.2632364 L 232.73141 151.29179 L 191.992415 192.033461 L 128 192.033461 L 93.11273 226.918947 L 93.11273 192.033461 L 40.7166868 192.033461 L 40.7166868 23.2632364 Z M 104.724985 139.668381 L 127.999822 139.668381 L 127.999822 69.843872 L 104.724985 69.843872 L 104.724985 139.668381 Z M 168.721862 139.668381 L 191.992237 139.668381 L 191.992237 69.843872 L 168.721862 69.843872 L 168.721862 139.668381 Z" stroke-linecap="round"/>
    </g>
</svg>